<svg width="40" height="41" viewBox="0 0 40 41" fill="none" xmlns="http://www.w3.org/2000/svg">
<g id="icons/social/roundel/instagram">
<g id="instagram">
<ellipse id="Oval 2 Copy" cx="20" cy="20.8754" rx="20" ry="19.977" fill="#F29F05" fill-opacity="0.14"/>
<path id="Fill 1" fill-rule="evenodd" clip-rule="evenodd" d="M19.9969 10.8931C17.2819 10.8931 16.9414 10.9046 15.8752 10.9532C14.8111 11.0016 14.0844 11.1704 13.4485 11.4173C12.7912 11.6724 12.2337 12.0139 11.6779 12.569C11.1221 13.1241 10.7803 13.681 10.5248 14.3376C10.2777 14.9728 10.1087 15.6986 10.0602 16.7615C10.0115 17.8265 10 18.1666 10 20.8784C10 23.5903 10.0115 23.9303 10.0602 24.9954C10.1087 26.0582 10.2777 26.784 10.5248 27.4192C10.7803 28.0758 11.1221 28.6327 11.6779 29.1878C12.2337 29.7429 12.7912 30.0844 13.4485 30.3396C14.0844 30.5864 14.8111 30.7552 15.8752 30.8037C16.9414 30.8523 17.2819 30.8638 19.9969 30.8638C22.7118 30.8638 23.0523 30.8523 24.1185 30.8037C25.1826 30.7552 25.9093 30.5864 26.5452 30.3396C27.2025 30.0844 27.76 29.7429 28.3158 29.1878C28.8716 28.6327 29.2134 28.0758 29.4689 27.4192C29.716 26.784 29.885 26.0582 29.9335 24.9954C29.9822 23.9303 29.9937 23.5903 29.9937 20.8784C29.9937 18.1666 29.9822 17.8265 29.9335 16.7615C29.885 15.6986 29.716 14.9728 29.4689 14.3376C29.2134 13.681 28.8716 13.1241 28.3158 12.569C27.76 12.0139 27.2025 11.6724 26.5452 11.4173C25.9093 11.1704 25.1826 11.0016 24.1185 10.9532C23.0523 10.9046 22.7118 10.8931 19.9969 10.8931ZM19.9969 12.6922C22.6661 12.6922 22.9823 12.7024 24.0364 12.7505C25.0111 12.7948 25.5404 12.9575 25.8927 13.0943C26.3593 13.2754 26.6923 13.4918 27.0421 13.8412C27.392 14.1906 27.6086 14.5232 27.79 14.9893C27.9269 15.3412 28.0897 15.8699 28.1342 16.8435C28.1823 17.8964 28.1925 18.2122 28.1925 20.8784C28.1925 23.5446 28.1823 23.8604 28.1342 24.9133C28.0897 25.8869 27.9269 26.4156 27.79 26.7675C27.6086 27.2336 27.392 27.5662 27.0421 27.9156C26.6923 28.265 26.3593 28.4814 25.8927 28.6626C25.5404 28.7993 25.0111 28.962 24.0364 29.0064C22.9825 29.0544 22.6663 29.0646 19.9969 29.0646C17.3274 29.0646 17.0113 29.0544 15.9573 29.0064C14.9826 28.962 14.4533 28.7993 14.101 28.6626C13.6344 28.4814 13.3013 28.265 12.9515 27.9156C12.6017 27.5662 12.3851 27.2336 12.2037 26.7675C12.0668 26.4156 11.904 25.8869 11.8595 24.9133C11.8114 23.8604 11.8012 23.5446 11.8012 20.8784C11.8012 18.2122 11.8114 17.8964 11.8595 16.8435C11.904 15.8699 12.0668 15.3412 12.2037 14.9893C12.3851 14.5232 12.6017 14.1906 12.9515 13.8412C13.3013 13.4918 13.6344 13.2754 14.101 13.0943C14.4533 12.9575 14.9826 12.7948 15.9573 12.7505C17.0114 12.7024 17.3276 12.6922 19.9969 12.6922Z" fill="#F25C05"/>
<path id="Combined Shape" fill-rule="evenodd" clip-rule="evenodd" d="M25.3332 16.7466C25.9957 16.7466 26.5328 16.2101 26.5328 15.5484C26.5328 14.8866 25.9957 14.3501 25.3332 14.3501C24.6707 14.3501 24.1336 14.8866 24.1336 15.5484C24.1336 16.2101 24.6707 16.7466 25.3332 16.7466ZM16.6646 20.8786C16.6646 22.7168 18.1565 24.207 19.9969 24.207C21.8372 24.207 23.3291 22.7168 23.3291 20.8786C23.3291 19.0403 21.8372 17.5501 19.9969 17.5501C18.1565 17.5501 16.6646 19.0403 16.6646 20.8786ZM14.8633 20.8786C14.8633 18.0466 17.1617 15.7509 19.9969 15.7509C22.832 15.7509 25.1304 18.0466 25.1304 20.8786C25.1304 23.7105 22.832 26.0062 19.9969 26.0062C17.1617 26.0062 14.8633 23.7105 14.8633 20.8786Z" fill="#F25C05"/>
</g>
</g>
</svg>
