<svg width="160" height="64" viewBox="0 0 160 64" fill="none" xmlns="http://www.w3.org/2000/svg">
<g id="IVF Academy Logo Main Wide 1" clip-path="url(#clip0_1_18)">
<g id="Group">
<g id="Group 1000001764">
<path id="Vector" d="M34.1593 13.4614L27.2729 17.5854L34.1204 21.7094L41.0456 17.5854L34.1593 13.4614Z" fill="#F3D92D"/>
<path id="Vector_2" d="M34.1204 21.7094L27.234 25.8334L20.3477 21.7094L27.2729 17.5854L34.1204 21.7094Z" fill="#F1C728"/>
<path id="Vector_3" d="M13.4614 25.8334L20.3088 29.9574L27.234 25.8334L20.3477 21.7094L13.4614 25.8334Z" fill="#F29F05"/>
<path id="Vector_4" d="M47.893 21.7094L41.0067 25.8334L34.1204 21.7094L41.0456 17.5854L47.893 21.7094Z" fill="#F1C728"/>
<path id="Vector_5" d="M41.0067 25.8334L34.0815 29.9574L27.234 25.8334L34.1204 21.7094L41.0067 25.8334Z" fill="#F29F05"/>
<path id="Vector_6" d="M34.0815 29.9574L27.1951 34.1204L20.3088 29.9574L27.234 25.8334L34.0815 29.9574Z" fill="#F28705"/>
<path id="Vector_7" d="M54.7793 25.8334L47.8541 29.9574L41.0067 25.8334L47.893 21.7094L54.7793 25.8334Z" fill="#F29F05"/>
<path id="Vector_8" d="M47.8541 29.9574L40.9289 34.1204L34.0815 29.9574L41.0067 25.8334L47.8541 29.9574Z" fill="#F28705"/>
<path id="Vector_9" d="M40.9289 34.1204L34.0425 38.2444L27.1951 34.1204L34.0814 29.9575L40.9289 34.1204Z" fill="#F25C05"/>
<path id="Vector_10" d="M54.7793 25.8334V32.0584L49.6049 35.1319V28.9459L54.7793 25.8334Z" fill="#F28705"/>
<path id="Vector_11" d="M39.217 41.279L34.0425 44.3526L28.8681 41.279L21.9818 37.155V43.341L28.907 47.4651L34.0425 50.5386L39.1781 47.4651L46.0644 43.341V37.155L39.217 41.279Z" fill="#F25C05"/>
</g>
<path id="Vector_12" d="M65.1672 39.0225V41.5903H68.2796V42.4073H65.1672V45.2863H64.2723V38.1666H68.6298V39.0225H65.1672Z" fill="#F25C05"/>
<path id="Vector_13" d="M72.676 43.1854V40.3453C72.676 38.9447 73.5708 38.0498 75.3605 38.0498C77.1502 38.0498 78.045 38.9447 78.045 40.3453V43.1854C78.045 44.586 77.1502 45.4419 75.3605 45.4419C73.5708 45.4419 72.676 44.5471 72.676 43.1854ZM77.1891 43.1076V40.4231C77.1891 39.4504 76.6833 38.9058 75.3994 38.9058C74.0766 38.9058 73.5708 39.4504 73.5708 40.4231V43.1076C73.5708 44.0802 74.0766 44.586 75.3994 44.586C76.6833 44.586 77.1891 44.0413 77.1891 43.1076Z" fill="#F25C05"/>
<path id="Vector_14" d="M86.2541 45.2863L84.9702 42.3295H84.9313H83.0249V45.2863H82.0912V38.1666H84.8924C86.293 38.1666 87.0711 38.8669 87.0711 40.034V40.462C87.0711 41.3179 86.6432 41.9404 85.865 42.2128L87.1878 45.3252L86.2541 45.2863ZM82.986 41.4736H84.9313C85.7872 41.4736 86.1763 41.1234 86.1763 40.4231V39.9951C86.1763 39.3337 85.7872 38.9447 84.9313 38.9447H82.986V41.4736Z" fill="#F25C05"/>
<path id="Vector_15" d="M97.1088 39.0225V41.5903H100.26V42.4073H97.1088V45.2863H96.2529V38.1666H100.61V39.0225H97.1088Z" fill="#F25C05"/>
<path id="Vector_16" d="M104.618 43.1854V38.1666H105.512V43.1076C105.512 44.0802 106.057 44.586 107.224 44.586C108.43 44.586 108.936 44.0413 108.936 43.1076V38.1666H109.831V43.1854C109.831 44.586 108.936 45.4419 107.224 45.4419C105.512 45.4419 104.618 44.5471 104.618 43.1854Z" fill="#F25C05"/>
<path id="Vector_17" d="M119.246 39.0225H117.029V45.2863H116.134V39.0225H113.877V38.1666H119.246V39.0225Z" fill="#F25C05"/>
<path id="Vector_18" d="M123.292 43.1854V38.1666H124.187V43.1076C124.187 44.0802 124.732 44.586 125.899 44.586C127.105 44.586 127.611 44.0413 127.611 43.1076V38.1666H128.506V43.1854C128.506 44.586 127.611 45.4419 125.899 45.4419C124.187 45.4419 123.292 44.5471 123.292 43.1854Z" fill="#F25C05"/>
<path id="Vector_19" d="M136.676 45.2863L135.392 42.3295H135.353H133.447V45.2863H132.552V38.1666H135.353C136.754 38.1666 137.532 38.8669 137.532 40.034V40.462C137.532 41.3179 137.104 41.9404 136.326 42.2128L137.649 45.3252L136.676 45.2863ZM133.408 41.4736H135.353C136.209 41.4736 136.598 41.1234 136.598 40.4231V39.9951C136.598 39.3337 136.209 38.9447 135.353 38.9447H133.369V41.4736H133.408Z" fill="#F25C05"/>
<path id="Vector_20" d="M142.551 39.0225V41.3568H145.547V42.2128H142.551V44.4304H146.013V45.2863H141.656V38.1666H146.013V39.0225H142.551Z" fill="#F25C05"/>
<path id="Vector_21" d="M74.4267 29.1404H68.0073L67.1125 31.2803H64.1167L69.7581 18.7137H72.7927L78.434 31.2803H75.3994L74.4267 29.1404ZM71.1976 21.5538L69.0188 26.6505H73.3374L71.1976 21.5538Z" fill="#F25C05"/>
<path id="Vector_22" d="M86.9155 30.1131C85.865 31.1635 84.5812 31.4748 83.4529 31.4748C80.8851 31.4748 78.6286 30.0741 78.6286 26.8839C78.6286 23.927 80.8851 22.2541 83.4529 22.2541C84.7368 22.2541 85.7483 22.5264 86.6432 23.4602L85.2036 25.0942C84.659 24.6662 84.0754 24.5884 83.5307 24.5884C82.2468 24.5884 81.1963 25.4444 81.1963 26.8839C81.1963 28.2845 82.2857 29.1015 83.4918 29.1015C84.0754 29.1015 84.8535 28.8681 85.2815 28.4401L86.9155 30.1131Z" fill="#F25C05"/>
<path id="Vector_23" d="M94.8134 22.4486H97.2255V31.3191H94.8912L94.7356 30.1909C94.152 31.1246 92.8681 31.4748 92.0121 31.5137C89.3666 31.5137 87.4213 29.8018 87.4213 26.8839C87.4213 23.927 89.4444 22.2152 92.0511 22.2541C93.1793 22.2541 94.1909 22.6821 94.6577 23.4602L94.8134 22.4486ZM90.0669 26.845C90.0669 28.3234 91.1173 29.1793 92.4012 29.1793C93.8407 29.1793 94.7356 28.0511 94.7356 26.9228C94.7356 25.6389 93.9185 24.4717 92.4012 24.4717C91.1173 24.5106 90.0669 25.4055 90.0669 26.845Z" fill="#F25C05"/>
<path id="Vector_24" d="M108.742 18.7526V31.2803H106.446L106.291 30.152C105.474 31.2024 104.462 31.4359 103.334 31.4359C100.727 31.4359 98.9763 29.6073 98.9763 26.845C98.9763 23.966 100.805 22.2541 103.373 22.2541C104.423 22.2541 105.396 22.5654 106.135 23.4991V18.7526H108.742ZM101.544 26.845C101.544 28.1289 102.322 29.1404 103.723 29.1404C104.89 29.1404 106.096 28.5568 106.096 26.845C106.096 25.3666 104.89 24.5496 103.723 24.5496C102.361 24.5885 101.544 25.5222 101.544 26.845Z" fill="#F25C05"/>
<path id="Vector_25" d="M113.021 27.7009C113.138 28.5568 113.955 29.2572 115.433 29.2572C116.134 29.2572 117.106 29.1015 117.729 28.5568L119.168 30.152C118.235 31.0857 116.678 31.4748 115.356 31.4748C112.165 31.4748 110.376 29.6073 110.376 26.7672C110.376 24.0827 112.204 22.1763 115.083 22.1763C118.079 22.1763 120.063 24.0438 119.519 27.7009H113.021ZM117.223 25.8334C117.184 24.8608 116.173 24.4328 115.122 24.4328C114.072 24.4328 113.294 24.9775 113.06 25.8334H117.223Z" fill="#F25C05"/>
<path id="Vector_26" d="M126.988 31.2803V26.5338C126.988 25.3666 126.522 24.5885 125.471 24.5885C124.46 24.5885 123.876 25.5222 123.876 26.5338V31.2803H121.308V22.4486H123.565L123.759 23.4602C124.304 22.4876 125.354 22.2541 126.094 22.2541C127.066 22.2541 128.117 22.6043 128.661 23.8882C129.44 22.6821 130.295 22.2152 131.618 22.2152C133.447 22.2152 135.159 23.1489 135.159 26.4559V31.2803H132.552V26.4948C132.552 25.3666 132.241 24.6663 131.19 24.6663C130.179 24.6663 129.556 25.5611 129.556 26.5338V31.2803H126.988Z" fill="#F25C05"/>
<path id="Vector_27" d="M146.013 22.4486L140.567 35.2875H137.765L139.594 31.0079L135.859 22.4486H138.777L140.995 28.0122L143.173 22.4486H146.013Z" fill="#F25C05"/>
</g>
</g>
<defs>
<clipPath id="clip0_1_18">
<rect width="159.475" height="64" fill="white"/>
</clipPath>
</defs>
</svg>
