<svg width="40" height="41" viewBox="0 0 40 41" fill="none" xmlns="http://www.w3.org/2000/svg">
<g id="icons/social/roundel/twitter">
<g id="twitter">
<ellipse id="Oval 2 Copy 2" cx="20" cy="20.8754" rx="20" ry="19.977" fill="#F29F05" fill-opacity="0.14"/>
<path id="Twitter" fill-rule="evenodd" clip-rule="evenodd" d="M27.3657 15.6119C28.1999 15.1133 28.84 14.3216 29.1415 13.3811C28.3605 13.8427 27.4974 14.1774 26.5754 14.3574C25.8406 13.575 24.7903 13.0845 23.628 13.0845C21.3992 13.0845 19.591 14.8917 19.591 17.1191C19.591 17.4353 19.6256 17.7423 19.695 18.0377C16.3385 17.8681 13.3634 16.2651 11.3703 13.8208C11.0225 14.4197 10.8238 15.1133 10.8238 15.8519C10.8238 17.2495 11.5367 18.4855 12.6205 19.2091C11.9596 19.1895 11.3356 19.0072 10.7903 18.706V18.7556C10.7903 20.7106 12.1826 22.3413 14.0312 22.7117C13.6927 22.8064 13.3356 22.8537 12.9671 22.8537C12.7071 22.8537 12.4529 22.8295 12.2068 22.7821C12.721 24.384 14.2114 25.5508 15.9792 25.5831C14.5973 26.6644 12.855 27.3096 10.9636 27.3096C10.6378 27.3096 10.3154 27.2911 10 27.2542C11.7874 28.3979 13.911 29.0661 16.1906 29.0661C23.6199 29.0661 27.6811 22.9195 27.6811 17.5865C27.6811 17.4122 27.6776 17.2368 27.6707 17.0649C28.4599 16.4959 29.145 15.7862 29.6846 14.976C28.9613 15.298 28.1826 15.5138 27.3657 15.6119Z" fill="#F25C05"/>
</g>
</g>
</svg>
